<?xml version="1.0" encoding="utf-8"?>
<!-- Generator: Adobe Illustrator 26.0.0, SVG Export Plug-In . SVG Version: 6.00 Build 0)  -->
<svg version="1.1" id="Layer_1" xmlns="http://www.w3.org/2000/svg" xmlns:xlink="http://www.w3.org/1999/xlink" x="0px" y="0px"
	 viewBox="0 0 350 100" style="enable-background:new 0 0 350 100;" xml:space="preserve">
<style type="text/css">
	.st0{fill:#3B82F6;}
	.st1{fill:#F77424;}
</style>
<g>
	<g>
		<path class="st0" d="M28.1,74.5c-3.5-1.3-6.2-3-8.1-5.1l1.7-2.8c1.8,1.9,4.3,3.5,7.4,4.7c3.1,1.2,6.4,1.8,9.8,1.8
			c5,0,8.7-0.9,11.3-2.8c2.5-1.9,3.8-4.3,3.8-7.4c0-2.3-0.7-4.2-2-5.6c-1.3-1.4-3-2.5-5-3.2c-2-0.7-4.7-1.5-8.1-2.3
			c-3.8-0.9-6.9-1.9-9.2-2.8c-2.3-0.9-4.3-2.3-5.9-4.1c-1.6-1.9-2.4-4.4-2.4-7.5c0-2.5,0.7-4.9,2-7c1.3-2.1,3.4-3.8,6.2-5
			c2.8-1.2,6.2-1.9,10.3-1.9c2.9,0,5.7,0.4,8.5,1.3c2.8,0.8,5.2,2,7.2,3.4l-1.4,3.1c-2.1-1.4-4.4-2.5-6.9-3.3
			c-2.5-0.7-5-1.1-7.4-1.1c-4.8,0-8.5,1-11,2.9c-2.5,1.9-3.7,4.5-3.7,7.5c0,2.3,0.7,4.2,2,5.6c1.3,1.4,3,2.5,5,3.2
			c2,0.7,4.7,1.5,8.1,2.4c3.8,0.9,6.9,1.9,9.2,2.8c2.3,0.9,4.2,2.3,5.9,4.1c1.6,1.8,2.4,4.3,2.4,7.3c0,2.5-0.7,4.8-2.1,6.9
			c-1.4,2.1-3.5,3.8-6.3,5c-2.8,1.2-6.3,1.9-10.4,1.9C35.2,76.5,31.5,75.8,28.1,74.5z"/>
		<path class="st0" d="M70.7,23.9h3.8v48.8h30.1v3.4H70.7V23.9z"/>
		<path class="st0" d="M114.3,23.9h3.8v52.2h-3.8V23.9z"/>
		<path class="st0" d="M185.7,76.1l-0.1-44.7l-21.9,37.7h-1.9l-21.8-37.6v44.5h-3.7V23.9h3.2l23.3,40.3l23.3-40.3h3.1l0.1,52.2
			H185.7z"/>
	</g>
	<path class="st0" d="M221.3,51.9L221.3,51.9c2,0,3.5-1.6,3.5-3.5v0c0-1.9-1.6-3.5-3.5-3.5h0c-1.9,0-3.5,1.6-3.5,3.5v0
		C217.8,50.4,219.3,51.9,221.3,51.9z"/>
	<path class="st0" d="M252.7,23.5h15v52.9h-15V23.5z"/>
	<path class="st0" d="M312.9,76.5l-10.9-16.3l-10.7,16.3h-16.9L293.5,50L275.2,24h16.7l10.5,15.1L312.8,24h16l-18.3,25.3L330,76.5
		H312.9z"/>
	<path class="st1" d="M241.3,31.4l-13.2,23.5l16.2,0l1.6-1.6V36.1L241.3,31.4z M213,58.2v7.9l20,0.1l7.8-7.8L213,58.2z M233.4,23.5
		h-17.1l13.9,20.2l8.3-15.1L233.4,23.5z M211.8,23.5h-15.6v15.3h26.2L211.8,23.5z M196.3,41.5v35h14.8v-35H196.3z"/>
</g>
</svg>
